<svg width="400" height="400" viewBox="0 0 400 400" fill="none" xmlns="http://www.w3.org/2000/svg">
<g clip-path="url(#clip0_30_284)">
<rect x="61.6595" y="131.708" width="85.3933" height="85.3933" rx="42.6966" stroke="black"/>
<circle cx="175.22" cy="103.542" r="43.1966" fill="white" stroke="white" stroke-width="30"/>
<circle cx="134.494" cy="266.447" r="43.1966" fill="white" stroke="white" stroke-width="30"/>
<circle cx="227.349" cy="289.253" r="40.8928" fill="white" stroke="white" stroke-width="30"/>
<circle cx="104.356" cy="174.405" r="43.1966" fill="white" stroke="white" stroke-width="30"/>
<circle cx="266.446" cy="134.494" r="43.1966" fill="white" stroke="white" stroke-width="30"/>
<circle cx="290.068" cy="226.535" r="40.8928" fill="white" stroke="white" stroke-width="30"/>
<circle cx="198.841" cy="197.211" r="43.1966" fill="white" stroke="white" stroke-width="30"/>
<circle cx="315.318" cy="313.689" r="39.7409" fill="white" stroke="white" stroke-width="30"/>
<path d="M104.356 131.208C128.213 131.208 147.553 150.548 147.553 174.405C147.553 198.262 128.213 217.602 104.356 217.602C80.4991 217.602 61.1595 198.262 61.1595 174.405C61.1597 150.548 80.4992 131.209 104.356 131.208ZM118.13 183.902C117.018 183.295 115.625 183.701 115.012 184.808C115.013 184.806 115.014 184.804 115.014 184.803C115.013 184.805 115.01 184.81 115.005 184.819C114.993 184.84 114.967 184.882 114.928 184.942C114.85 185.062 114.72 185.252 114.534 185.489C114.159 185.964 113.565 186.62 112.724 187.281C111.066 188.584 108.389 189.956 104.356 189.956C100.323 189.955 97.6459 188.584 95.9876 187.281C95.1464 186.62 94.5526 185.964 94.1781 185.489C93.9913 185.252 93.8613 185.062 93.7835 184.942C93.7448 184.882 93.719 184.84 93.7064 184.819L93.7054 184.817C93.095 183.703 91.697 183.293 90.5814 183.902C89.4649 184.511 89.0533 185.911 89.6624 187.028L91.6849 185.924C89.6899 187.012 89.6632 187.028 89.6634 187.03L89.6654 187.033C89.6662 187.034 89.6674 187.036 89.6683 187.038C89.6703 187.041 89.6727 187.046 89.6751 187.05C89.6801 187.059 89.686 187.07 89.6927 187.082C89.7065 187.106 89.7242 187.137 89.7455 187.172C89.788 187.244 89.8457 187.338 89.9193 187.452C90.0665 187.678 90.2779 187.984 90.5589 188.34C91.1202 189.053 91.9667 189.981 93.141 190.904C95.5142 192.768 99.1738 194.564 104.356 194.564C109.538 194.564 113.197 192.768 115.571 190.904C116.745 189.981 117.591 189.053 118.153 188.34C118.434 187.984 118.645 187.678 118.792 187.452C118.866 187.338 118.925 187.244 118.967 187.172C118.988 187.137 119.005 187.106 119.019 187.082C119.026 187.07 119.032 187.059 119.037 187.05C119.04 187.046 119.042 187.041 119.044 187.038C119.045 187.036 119.046 187.034 119.047 187.033L119.048 187.03C119.049 187.029 119.047 187.026 117.027 185.924L119.049 187.028C119.658 185.911 119.247 184.511 118.13 183.902ZM86.5013 161.158C83.3206 161.158 80.7425 163.737 80.7425 166.917C80.7425 170.098 83.3206 172.677 86.5013 172.677C89.6822 172.677 92.2611 170.098 92.2611 166.917C92.2611 163.737 89.6822 161.158 86.5013 161.158ZM122.21 161.159C119.03 161.159 116.452 163.737 116.452 166.917C116.452 170.098 119.03 172.677 122.21 172.677C125.391 172.677 127.97 170.098 127.97 166.917C127.97 163.737 125.391 161.159 122.21 161.159Z" fill="#9357EE"/>
<rect x="91.7969" y="223.75" width="85.3933" height="85.3933" rx="42.6966" stroke="black"/>
<path d="M134.493 223.25C158.35 223.25 177.69 242.59 177.69 266.446C177.69 290.303 158.35 309.644 134.493 309.644C110.636 309.643 91.2969 290.303 91.2969 266.446C91.2971 242.59 110.637 223.25 134.493 223.25ZM148.268 275.943C147.155 275.337 145.762 275.743 145.149 276.85C145.151 276.847 145.151 276.845 145.151 276.845C145.151 276.846 145.148 276.852 145.143 276.86C145.13 276.882 145.104 276.924 145.065 276.983C144.988 277.103 144.857 277.294 144.671 277.53C144.296 278.006 143.702 278.661 142.861 279.322C141.203 280.625 138.526 281.997 134.493 281.997C130.46 281.997 127.783 280.625 126.125 279.322C125.284 278.661 124.69 278.006 124.315 277.53C124.129 277.293 123.999 277.103 123.921 276.983C123.882 276.924 123.856 276.882 123.844 276.86L123.843 276.858C123.232 275.744 121.834 275.335 120.719 275.943C119.602 276.553 119.191 277.953 119.8 279.069L121.822 277.966C119.827 279.054 119.801 279.07 119.801 279.071L119.803 279.074C119.804 279.076 119.805 279.077 119.806 279.079C119.808 279.083 119.81 279.087 119.812 279.092C119.817 279.101 119.823 279.111 119.83 279.123C119.844 279.147 119.862 279.178 119.883 279.214C119.925 279.285 119.983 279.38 120.057 279.493C120.204 279.72 120.415 280.025 120.696 280.382C121.258 281.094 122.104 282.023 123.278 282.945C125.652 284.81 129.311 286.605 134.493 286.605C139.675 286.605 143.335 284.81 145.708 282.945C146.882 282.023 147.729 281.094 148.29 280.382C148.571 280.025 148.782 279.72 148.93 279.493C149.003 279.38 149.062 279.285 149.104 279.214C149.126 279.178 149.143 279.147 149.156 279.123C149.163 279.111 149.17 279.101 149.175 279.092C149.177 279.087 149.18 279.083 149.182 279.079C149.183 279.078 149.184 279.076 149.185 279.074L149.186 279.071C149.186 279.07 149.184 279.068 147.164 277.966L149.187 279.069C149.796 277.952 149.385 276.553 148.268 275.943ZM116.64 253.199C113.459 253.199 110.88 255.778 110.88 258.959C110.88 262.14 113.459 264.719 116.64 264.719C119.82 264.718 122.398 262.14 122.398 258.959C122.398 255.778 119.82 253.199 116.64 253.199ZM152.348 253.2C149.167 253.2 146.589 255.778 146.589 258.959C146.589 262.14 149.167 264.719 152.348 264.719C155.529 264.719 158.107 262.14 158.107 258.959C158.107 255.778 155.528 253.2 152.348 253.2Z" fill="#9357EE"/>
<rect x="223.75" y="91.7969" width="85.3933" height="85.3933" rx="42.6966" stroke="black"/>
<path d="M266.446 91.2969C290.303 91.2969 309.643 110.636 309.643 134.493C309.643 158.35 290.303 177.69 266.446 177.69C242.589 177.69 223.25 158.35 223.25 134.493C223.25 110.637 242.589 91.2971 266.446 91.2969ZM280.22 143.99C279.108 143.383 277.715 143.79 277.102 144.896C277.104 144.894 277.104 144.892 277.104 144.892C277.104 144.893 277.101 144.898 277.095 144.907C277.083 144.928 277.057 144.971 277.018 145.03C276.941 145.15 276.81 145.34 276.624 145.577C276.249 146.053 275.655 146.708 274.814 147.369C273.156 148.672 270.479 150.044 266.446 150.044C262.413 150.044 259.736 148.672 258.078 147.369C257.237 146.708 256.643 146.053 256.268 145.577C256.082 145.34 255.951 145.15 255.874 145.03C255.835 144.971 255.809 144.928 255.797 144.907L255.796 144.905C255.185 143.791 253.787 143.382 252.672 143.99C251.555 144.6 251.143 145.999 251.753 147.116L253.775 146.013C251.78 147.101 251.753 147.117 251.754 147.118L251.756 147.121C251.756 147.123 251.758 147.124 251.759 147.126C251.761 147.13 251.763 147.134 251.765 147.139C251.77 147.148 251.776 147.158 251.783 147.17C251.797 147.194 251.814 147.225 251.836 147.261C251.878 147.332 251.936 147.427 252.009 147.54C252.157 147.767 252.368 148.072 252.649 148.429C253.21 149.141 254.057 150.069 255.231 150.992C257.604 152.857 261.264 154.652 266.446 154.652C271.628 154.652 275.288 152.857 277.661 150.992C278.835 150.07 279.682 149.141 280.243 148.429C280.524 148.072 280.735 147.767 280.883 147.54C280.956 147.427 281.015 147.332 281.057 147.261C281.079 147.225 281.095 147.194 281.109 147.17C281.116 147.158 281.123 147.148 281.128 147.139C281.13 147.134 281.132 147.13 281.134 147.126C281.135 147.124 281.137 147.123 281.137 147.121L281.138 147.118C281.139 147.117 281.137 147.115 279.117 146.013L281.139 147.116C281.749 145.999 281.337 144.6 280.22 143.99ZM248.592 121.246C245.411 121.246 242.832 123.825 242.832 127.006C242.832 130.187 245.411 132.765 248.592 132.766C251.772 132.766 254.351 130.187 254.351 127.006C254.351 123.825 251.772 121.246 248.592 121.246ZM284.301 121.247C281.12 121.247 278.541 123.826 278.541 127.007C278.541 130.187 281.12 132.766 284.301 132.766C287.481 132.766 290.06 130.188 290.06 127.007C290.06 123.826 287.481 121.247 284.301 121.247Z" fill="#9357EE"/>
<rect x="186.956" y="248.86" width="80.7856" height="80.7856" rx="40.3928" stroke="black"/>
<path d="M227.349 248.36C249.933 248.36 268.241 266.669 268.242 289.253C268.242 311.837 249.933 330.146 227.349 330.146C204.765 330.145 186.456 311.837 186.456 289.253C186.457 266.669 204.765 248.36 227.349 248.36ZM240.389 298.243C239.333 297.667 238.01 298.056 237.432 299.11C237.433 299.109 237.433 299.107 237.434 299.106C237.435 299.105 237.436 299.103 237.437 299.102C237.438 299.099 237.439 299.097 237.439 299.097C237.438 299.098 237.435 299.104 237.43 299.112C237.418 299.133 237.394 299.173 237.358 299.229C237.284 299.342 237.16 299.521 236.984 299.745C236.629 300.195 236.067 300.817 235.271 301.442C233.701 302.676 231.167 303.975 227.349 303.975C223.531 303.975 220.997 302.676 219.427 301.442C218.631 300.817 218.069 300.195 217.714 299.745C217.538 299.521 217.414 299.342 217.34 299.229C217.304 299.172 217.28 299.133 217.268 299.112L217.262 299.102C217.263 299.103 217.262 299.105 217.263 299.106C216.684 298.055 215.365 297.668 214.31 298.243C213.253 298.82 212.862 300.145 213.439 301.202L215.354 300.158C213.439 301.202 213.44 301.204 213.441 301.205L213.442 301.207C213.443 301.209 213.444 301.21 213.445 301.212C213.447 301.215 213.448 301.22 213.451 301.224C213.455 301.232 213.462 301.243 213.468 301.254C213.481 301.277 213.498 301.305 213.518 301.339C213.558 301.407 213.612 301.496 213.682 301.604C213.821 301.818 214.022 302.108 214.288 302.445C214.82 303.12 215.621 303.999 216.733 304.872C218.979 306.637 222.443 308.337 227.349 308.337C232.254 308.337 235.718 306.637 237.965 304.872C239.077 303.999 239.878 303.12 240.41 302.445C240.676 302.108 240.877 301.818 241.016 301.604C241.086 301.496 241.141 301.407 241.181 301.339C241.201 301.305 241.217 301.277 241.23 301.254C241.236 301.243 241.243 301.232 241.247 301.224C241.25 301.22 241.251 301.215 241.253 301.212C241.254 301.21 241.255 301.208 241.256 301.207L241.258 301.205C241.259 301.204 241.259 301.203 239.344 300.158L241.259 301.202C241.836 300.145 241.446 298.82 240.389 298.243ZM210.447 276.713C207.435 276.713 204.994 279.154 204.994 282.165C204.994 285.176 207.435 287.617 210.447 287.617C213.458 287.617 215.899 285.176 215.899 282.165C215.899 279.154 213.458 276.713 210.447 276.713ZM244.251 276.713C241.24 276.713 238.799 279.154 238.799 282.165C238.799 285.176 241.24 287.617 244.251 287.617C247.263 287.617 249.703 285.176 249.703 282.165C249.703 279.154 247.262 276.713 244.251 276.713Z" fill="#9357EE"/>
<rect x="132.523" y="60.8452" width="85.3933" height="85.3933" rx="42.6966" stroke="black"/>
<path d="M175.219 60.3452C199.076 60.3452 218.416 79.6848 218.417 103.542C218.417 127.398 199.076 146.739 175.219 146.739C151.363 146.739 132.023 127.398 132.023 103.542C132.023 79.6849 151.363 60.3454 175.219 60.3452ZM160.821 109.877C160.821 117.83 167.267 122.548 175.219 122.548C183.172 122.548 189.619 117.83 189.619 109.877H160.821ZM156.789 90.2954C153.765 90.2955 151.634 91.593 150.295 92.8843C149.636 93.5195 149.166 94.1532 148.857 94.6343C148.702 94.8763 148.584 95.0855 148.501 95.2427C148.459 95.3212 148.425 95.388 148.4 95.4399C148.388 95.4655 148.377 95.4879 148.369 95.5063C148.365 95.5155 148.36 95.5244 148.357 95.5317C148.355 95.5353 148.354 95.5394 148.352 95.5425C148.352 95.5439 148.351 95.5461 148.35 95.5474L148.349 95.5493C148.354 95.5528 148.459 95.6003 150.454 96.4868L148.348 95.5513C147.832 96.7139 148.356 98.0756 149.518 98.5923C150.676 99.1066 152.031 98.5888 152.552 97.436C152.551 97.4395 152.549 97.4429 152.548 97.4448L152.573 97.397C152.602 97.3416 152.656 97.2457 152.734 97.1235C152.893 96.8758 153.144 96.538 153.493 96.2017C154.169 95.5493 155.205 94.9029 156.789 94.9028C158.372 94.9028 159.409 95.5492 160.086 96.2017C160.434 96.538 160.685 96.8758 160.844 97.1235C160.923 97.2457 160.976 97.3416 161.005 97.397L161.029 97.4448C161.028 97.4429 161.027 97.4396 161.025 97.436C161.024 97.4344 161.024 97.4321 161.023 97.4302C161.542 98.5871 162.9 99.1076 164.06 98.5923C165.223 98.0756 165.746 96.7139 165.23 95.5513L163.125 96.4868C165.128 95.5963 165.225 95.5524 165.229 95.5493L165.228 95.5474C165.228 95.5461 165.227 95.5439 165.226 95.5425C165.225 95.5394 165.223 95.5353 165.221 95.5317C165.218 95.5244 165.214 95.5155 165.21 95.5063C165.201 95.4879 165.19 95.4656 165.177 95.4399C165.152 95.388 165.119 95.3212 165.078 95.2427C164.995 95.0855 164.877 94.8763 164.721 94.6343C164.412 94.1532 163.943 93.5195 163.284 92.8843C161.945 91.593 159.813 90.2954 156.789 90.2954ZM193.65 90.2954C190.626 90.2955 188.495 91.593 187.156 92.8843C186.497 93.5195 186.027 94.1532 185.718 94.6343C185.563 94.8763 185.445 95.0855 185.362 95.2427C185.32 95.3212 185.286 95.388 185.261 95.4399C185.249 95.4655 185.239 95.4879 185.23 95.5063C185.226 95.5155 185.222 95.5244 185.218 95.5317C185.217 95.5354 185.215 95.5393 185.213 95.5425C185.213 95.544 185.212 95.546 185.212 95.5474L185.211 95.5493C185.217 95.5534 185.335 95.6067 187.315 96.4868L185.21 95.5513C184.693 96.7139 185.217 98.0756 186.38 98.5923C187.537 99.1065 188.892 98.5888 189.414 97.436C189.412 97.4396 189.411 97.4429 189.41 97.4448L189.434 97.397C189.463 97.3416 189.517 97.2458 189.595 97.1235C189.754 96.8758 190.005 96.538 190.354 96.2017C191.031 95.5493 192.067 94.9029 193.65 94.9028C195.234 94.9029 196.27 95.5492 196.947 96.2017C197.296 96.5379 197.547 96.8758 197.706 97.1235C197.784 97.2457 197.838 97.3416 197.867 97.397L197.89 97.4448C197.889 97.4429 197.888 97.4395 197.886 97.436C197.886 97.4345 197.885 97.4321 197.884 97.4302C198.404 98.5871 199.762 99.1077 200.922 98.5923C202.084 98.0756 202.608 96.7138 202.091 95.5513L199.986 96.4868C202.004 95.5898 202.087 95.5518 202.09 95.5493L202.089 95.5474C202.089 95.5461 202.088 95.5439 202.088 95.5425C202.086 95.5394 202.084 95.5353 202.083 95.5317C202.079 95.5245 202.075 95.5155 202.071 95.5063C202.062 95.4879 202.051 95.4656 202.039 95.4399C202.014 95.3881 201.981 95.3211 201.939 95.2427C201.856 95.0855 201.738 94.8762 201.583 94.6343C201.274 94.1533 200.804 93.5195 200.145 92.8843C198.806 91.593 196.674 90.2955 193.65 90.2954Z" fill="#9357EE"/>
<rect x="156.144" y="154.515" width="85.3933" height="85.3933" rx="42.6966" stroke="black"/>
<path d="M198.841 154.015C222.697 154.015 242.038 173.354 242.038 197.211C242.038 221.068 222.697 240.408 198.841 240.408C174.984 240.408 155.644 221.068 155.644 197.211C155.644 173.354 174.984 154.015 198.841 154.015ZM184.442 203.547C184.442 211.499 190.888 216.218 198.841 216.218C206.793 216.218 213.24 211.499 213.24 203.547H184.442ZM180.41 183.965C177.386 183.965 175.255 185.262 173.916 186.554C173.257 187.189 172.787 187.823 172.478 188.304C172.323 188.546 172.205 188.755 172.122 188.912C172.08 188.991 172.046 189.057 172.021 189.109C172.009 189.135 171.999 189.157 171.99 189.176C171.986 189.185 171.982 189.194 171.978 189.201C171.977 189.205 171.975 189.209 171.973 189.212C171.973 189.213 171.972 189.215 171.971 189.217L171.97 189.219C171.976 189.222 172.087 189.273 174.075 190.156L171.969 189.221C171.453 190.383 171.977 191.745 173.139 192.262C174.297 192.776 175.652 192.258 176.174 191.105C176.172 191.109 176.171 191.112 176.17 191.114L176.194 191.066C176.223 191.011 176.277 190.915 176.355 190.793C176.514 190.545 176.765 190.207 177.114 189.871C177.791 189.219 178.827 188.572 180.41 188.572C181.993 188.572 183.03 189.219 183.707 189.871C184.055 190.207 184.307 190.545 184.466 190.793C184.544 190.915 184.597 191.011 184.627 191.066L184.65 191.114C184.649 191.112 184.648 191.109 184.646 191.105C184.645 191.104 184.645 191.102 184.644 191.1C185.164 192.257 186.521 192.777 187.681 192.262C188.844 191.745 189.368 190.383 188.851 189.221L186.746 190.156C188.788 189.249 188.849 189.221 188.85 189.219L188.849 189.217C188.849 189.215 188.848 189.213 188.847 189.212C188.846 189.209 188.844 189.205 188.842 189.201C188.839 189.194 188.835 189.185 188.831 189.176C188.822 189.157 188.811 189.135 188.799 189.109C188.773 189.057 188.74 188.991 188.699 188.912C188.616 188.755 188.498 188.546 188.342 188.304C188.034 187.823 187.564 187.189 186.905 186.554C185.566 185.262 183.434 183.965 180.41 183.965ZM217.271 183.965C214.248 183.965 212.116 185.263 210.777 186.554C210.118 187.189 209.648 187.823 209.34 188.304C209.184 188.546 209.066 188.755 208.983 188.912C208.942 188.991 208.908 189.057 208.883 189.109C208.87 189.135 208.86 189.157 208.851 189.176C208.847 189.185 208.843 189.194 208.84 189.201C208.838 189.205 208.836 189.209 208.835 189.212C208.834 189.213 208.833 189.215 208.833 189.217L208.832 189.219C208.839 189.223 208.963 189.279 210.936 190.156L208.831 189.221C208.314 190.383 208.838 191.745 210.001 192.262C211.159 192.776 212.514 192.258 213.035 191.105C213.033 191.109 213.032 191.112 213.031 191.114L213.055 191.066C213.085 191.011 213.138 190.915 213.217 190.793C213.376 190.545 213.627 190.207 213.975 189.871C214.652 189.219 215.688 188.572 217.271 188.572C218.855 188.572 219.892 189.219 220.568 189.871C220.917 190.207 221.168 190.545 221.327 190.793C221.405 190.915 221.459 191.011 221.488 191.066L221.511 191.114C221.511 191.112 221.509 191.109 221.508 191.105C221.507 191.104 221.506 191.102 221.506 191.1C222.025 192.257 223.383 192.777 224.543 192.262C225.705 191.745 226.229 190.383 225.713 189.221L223.607 190.156C225.649 189.249 225.71 189.221 225.712 189.219L225.711 189.217C225.71 189.215 225.709 189.213 225.709 189.212C225.707 189.209 225.705 189.205 225.704 189.201C225.701 189.194 225.696 189.185 225.692 189.176C225.684 189.157 225.672 189.135 225.66 189.109C225.635 189.057 225.602 188.991 225.56 188.912C225.477 188.755 225.359 188.546 225.204 188.304C224.895 187.823 224.425 187.189 223.766 186.554C222.427 185.262 220.295 183.965 217.271 183.965Z" fill="#9357EE"/>
<rect x="249.675" y="186.142" width="80.7856" height="80.7856" rx="40.3928" stroke="black"/>
<path d="M290.067 185.642C312.652 185.642 330.96 203.95 330.96 226.535C330.96 249.119 312.652 267.427 290.067 267.427C267.483 267.427 249.175 249.119 249.175 226.535C249.175 203.95 267.483 185.642 290.067 185.642ZM276.436 232.533C276.436 240.061 282.539 244.528 290.067 244.528C297.595 244.528 303.698 240.061 303.698 232.533H276.436ZM272.619 213.995C269.757 213.995 267.738 215.223 266.471 216.446C265.847 217.047 265.403 217.648 265.11 218.103C264.963 218.332 264.852 218.529 264.773 218.678C264.734 218.753 264.702 218.816 264.679 218.865C264.667 218.889 264.657 218.911 264.648 218.928C264.644 218.937 264.64 218.945 264.637 218.952L264.631 218.966L264.63 218.968C264.63 218.97 264.667 218.987 266.622 219.856L264.629 218.97C264.14 220.071 264.636 221.36 265.736 221.849C266.765 222.306 267.96 221.903 268.511 220.949L268.605 220.762C268.605 220.763 268.605 220.765 268.604 220.765C268.607 220.761 268.615 220.744 268.629 220.718C268.657 220.666 268.707 220.575 268.781 220.459C268.932 220.225 269.169 219.904 269.499 219.585C270.139 218.968 271.12 218.357 272.619 218.357C274.118 218.357 275.1 218.968 275.74 219.585C276.07 219.904 276.307 220.225 276.458 220.459C276.532 220.575 276.583 220.666 276.61 220.718L276.634 220.762L276.727 220.944C277.277 221.901 278.472 222.307 279.503 221.849C280.603 221.36 281.099 220.071 280.61 218.97L278.617 219.856C280.508 219.016 280.605 218.971 280.609 218.968L280.608 218.966C280.608 218.965 280.607 218.963 280.606 218.961C280.605 218.958 280.603 218.955 280.601 218.952C280.598 218.945 280.595 218.937 280.591 218.928C280.583 218.911 280.572 218.889 280.56 218.865C280.537 218.816 280.505 218.753 280.466 218.678C280.387 218.529 280.276 218.332 280.129 218.103C279.836 217.648 279.391 217.047 278.767 216.446C277.5 215.223 275.481 213.995 272.619 213.995ZM307.515 213.995C304.652 213.995 302.634 215.223 301.366 216.446C300.743 217.047 300.298 217.648 300.006 218.103C299.859 218.332 299.748 218.53 299.669 218.678C299.63 218.753 299.598 218.816 299.574 218.865C299.562 218.889 299.552 218.911 299.544 218.928C299.54 218.937 299.535 218.945 299.532 218.952L299.526 218.966L299.525 218.968C299.527 218.97 299.588 218.998 301.517 219.856L299.524 218.97C299.035 220.071 299.531 221.36 300.632 221.849C301.661 222.306 302.854 221.902 303.405 220.949L303.501 220.762C303.5 220.765 303.499 220.766 303.5 220.765C303.502 220.761 303.511 220.744 303.524 220.718C303.552 220.666 303.602 220.575 303.677 220.459C303.827 220.225 304.064 219.904 304.394 219.585C305.035 218.968 306.016 218.357 307.515 218.357C309.014 218.357 309.995 218.968 310.636 219.585C310.966 219.904 311.203 220.225 311.353 220.459C311.428 220.575 311.478 220.666 311.506 220.718L311.529 220.762L311.522 220.749L311.623 220.944C312.172 221.901 313.368 222.307 314.398 221.849C315.499 221.36 315.995 220.071 315.506 218.97L313.513 219.856C315.397 219.019 315.5 218.972 315.505 218.968L315.504 218.966C315.503 218.965 315.503 218.963 315.502 218.961C315.501 218.959 315.499 218.955 315.497 218.952C315.494 218.945 315.49 218.937 315.486 218.928C315.478 218.911 315.468 218.889 315.456 218.865C315.432 218.816 315.401 218.753 315.361 218.678C315.283 218.529 315.171 218.332 315.024 218.103C314.732 217.648 314.287 217.047 313.663 216.446C312.395 215.223 310.377 213.995 307.515 213.995Z" fill="#9357EE"/>
<rect x="276.077" y="274.448" width="78.4818" height="78.4818" rx="39.2409" stroke="black"/>
<path d="M315.318 273.948C337.266 273.948 355.058 291.741 355.058 313.689C355.058 335.638 337.266 353.43 315.318 353.43C293.37 353.43 275.577 335.638 275.577 313.689C275.577 291.741 293.37 273.948 315.318 273.948ZM302.071 319.518C302.071 326.834 308.002 331.175 315.318 331.175C322.634 331.175 328.565 326.834 328.565 319.518H302.071ZM298.361 301.502C295.579 301.502 293.618 302.696 292.386 303.884C291.78 304.468 291.348 305.052 291.064 305.494C290.921 305.717 290.813 305.909 290.736 306.054C290.698 306.126 290.667 306.187 290.644 306.234C290.633 306.258 290.623 306.28 290.615 306.297C290.611 306.305 290.607 306.313 290.604 306.319C290.603 306.323 290.601 306.326 290.599 306.329C290.599 306.331 290.598 306.333 290.597 306.334L290.596 306.336C290.598 306.338 290.666 306.369 292.533 307.198L290.596 306.338C290.121 307.407 290.602 308.659 291.672 309.135C292.741 309.61 293.992 309.129 294.468 308.061V308.062C294.468 308.064 294.467 308.065 294.466 308.066C294.466 308.068 294.464 308.07 294.464 308.071C294.462 308.074 294.461 308.077 294.461 308.079L294.483 308.036C294.51 307.985 294.558 307.897 294.631 307.784C294.777 307.556 295.008 307.245 295.329 306.936C295.951 306.335 296.904 305.741 298.361 305.741C299.818 305.741 300.772 306.335 301.394 306.936C301.715 307.245 301.945 307.556 302.091 307.784C302.164 307.897 302.213 307.985 302.24 308.036L302.258 308.071C302.258 308.07 302.257 308.068 302.257 308.066C302.256 308.065 302.255 308.064 302.255 308.062V308.061C302.731 309.129 303.981 309.61 305.05 309.135C306.12 308.659 306.602 307.408 306.127 306.338L304.19 307.198C305.998 306.395 306.118 306.34 306.126 306.336V306.334C306.125 306.333 306.124 306.331 306.124 306.329C306.122 306.326 306.12 306.323 306.119 306.319C306.116 306.313 306.112 306.305 306.108 306.297C306.1 306.28 306.09 306.258 306.079 306.234C306.056 306.187 306.025 306.126 305.987 306.054C305.91 305.909 305.802 305.717 305.659 305.494C305.375 305.052 304.943 304.468 304.337 303.884C303.105 302.696 301.143 301.502 298.361 301.502ZM332.273 301.502C329.492 301.502 327.531 302.696 326.299 303.884C325.693 304.468 325.26 305.052 324.976 305.494C324.833 305.717 324.725 305.909 324.648 306.054C324.61 306.126 324.579 306.187 324.556 306.234C324.545 306.258 324.535 306.28 324.527 306.297C324.523 306.305 324.519 306.313 324.516 306.319C324.515 306.323 324.513 306.326 324.511 306.329C324.511 306.331 324.51 306.333 324.509 306.334L324.508 306.336C324.51 306.338 324.57 306.365 326.445 307.198L324.508 306.338C324.034 307.407 324.515 308.659 325.584 309.135C326.653 309.61 327.904 309.129 328.381 308.061V308.062C328.38 308.064 328.379 308.065 328.379 308.066C328.378 308.068 328.376 308.07 328.376 308.071C328.374 308.074 328.374 308.077 328.373 308.079L328.395 308.036C328.422 307.985 328.471 307.897 328.543 307.784C328.689 307.556 328.92 307.245 329.241 306.936C329.863 306.335 330.817 305.741 332.273 305.741C333.73 305.741 334.684 306.335 335.306 306.936C335.627 307.245 335.857 307.556 336.004 307.784C336.076 307.897 336.125 307.985 336.152 308.036L336.171 308.071C336.17 308.07 336.169 308.068 336.169 308.066C336.168 308.065 336.167 308.064 336.167 308.062V308.061C336.643 309.129 337.894 309.609 338.963 309.135C340.032 308.659 340.514 307.407 340.039 306.338L338.102 307.198C339.893 306.402 340.028 306.341 340.038 306.336V306.334C340.037 306.333 340.036 306.331 340.036 306.329C340.035 306.326 340.032 306.323 340.031 306.319C340.028 306.313 340.024 306.305 340.02 306.297C340.012 306.28 340.002 306.258 339.991 306.234C339.968 306.187 339.937 306.126 339.899 306.054C339.823 305.909 339.714 305.717 339.571 305.494C339.287 305.052 338.855 304.468 338.249 303.884C337.017 302.696 335.055 301.502 332.273 301.502Z" fill="#9357EE"/>
<path d="M55.5588 93.2025C77.0163 93.2021 90.1979 108.223 90.1979 108.223C90.1979 108.223 73.9509 125.696 53.7198 125.696C33.4886 125.696 20.9196 111.288 20.9196 111.288C20.9196 111.288 34.1013 93.2028 55.5588 93.2025Z" fill="white" stroke="white" stroke-width="28" stroke-linecap="round"/>
<path d="M112.269 108.223L114.108 114.967C114.108 114.967 109.204 113.741 107.364 113.127C105.525 112.514 100.621 107.61 100.621 107.61C100.621 107.61 90.8113 100.866 80.0823 79.1014C69.3534 57.3369 71.1926 43.8491 71.1926 43.8491L90.1982 44.4622C90.1982 44.4622 87.7459 61.6285 94.4898 79.4079C101.234 97.1873 112.269 108.223 112.269 108.223Z" fill="white" stroke="white" stroke-width="28" stroke-linecap="round"/>
<path d="M55.5588 93.2025C77.0163 93.2021 90.1979 108.223 90.1979 108.223C90.1979 108.223 73.9509 125.696 53.7198 125.696C33.4886 125.696 20.9196 111.288 20.9196 111.288C20.9196 111.288 34.1013 93.2028 55.5588 93.2025Z" fill="#9357EE"/>
<path d="M112.269 108.223L114.108 114.967C114.108 114.967 109.204 113.741 107.364 113.127C105.525 112.514 100.621 107.61 100.621 107.61C100.621 107.61 90.8113 100.866 80.0823 79.1014C69.3534 57.3369 71.1926 43.8491 71.1926 43.8491L90.1982 44.4622C90.1982 44.4622 87.7459 61.6285 94.4898 79.4079C101.234 97.1873 112.269 108.223 112.269 108.223Z" fill="#9357EE"/>
</g>
<defs>
<clipPath id="clip0_30_284">
<rect width="400" height="400" fill="white"/>
</clipPath>
</defs>
</svg>
